<?xml version="1.0" encoding="UTF-8" standalone="no"?>
<!DOCTYPE svg PUBLIC "-//W3C//DTD SVG 1.1//EN" "http://www.w3.org/Graphics/SVG/1.1/DTD/svg11.dtd">
<svg width="100%" height="100%" viewBox="0 0 24 24" version="1.1" xmlns="http://www.w3.org/2000/svg" xmlns:xlink="http://www.w3.org/1999/xlink" xml:space="preserve" xmlns:serif="http://www.serif.com/" style="fill-rule:evenodd;clip-rule:evenodd;stroke-linejoin:round;stroke-miterlimit:1.41421;">
    <path d="M12,0C7.6,0 3,3.4 3,9C3,14.3 11,22.4 11.3,22.7C11.5,22.9 11.7,23 12,23C12.3,23 12.5,22.9 12.7,22.7C13,22.4 21,14.3 21,9C21,3.4 16.4,0 12,0ZM12,12C10.3,12 9,10.7 9,9C9,7.3 10.3,6 12,6C13.7,6 15,7.3 15,9C15,10.7 13.7,12 12,12Z" style="fill:rgb(210,210,210);fill-rule:nonzero;"/>
</svg>
