<?xml version="1.0" encoding="UTF-8" standalone="no"?>
<!DOCTYPE svg PUBLIC "-//W3C//DTD SVG 1.1//EN" "http://www.w3.org/Graphics/SVG/1.1/DTD/svg11.dtd">
<svg width="100%" height="100%" viewBox="0 0 24 24" version="1.1" xmlns="http://www.w3.org/2000/svg" xmlns:xlink="http://www.w3.org/1999/xlink" xml:space="preserve" xmlns:serif="http://www.serif.com/" style="fill-rule:evenodd;clip-rule:evenodd;stroke-linejoin:round;stroke-miterlimit:1.41421;">
    <path d="M23,0L1,0C0.4,0 0,0.4 0,1L0,23C0,23.6 0.4,24 1,24L23,24C23.6,24 24,23.6 24,23L24,1C24,0.4 23.6,0 23,0ZM10,5C11.1,5 12,5.9 12,7C12,8.1 11.1,9 10,9C8.9,9 8,8.1 8,7C8,5.9 8.9,5 10,5ZM18.2,19L5.9,19C5.1,19 4.6,18.1 5.1,17.4L7.3,14C7.7,13.5 8.4,13.4 8.8,13.8L11,16L14.1,12.1C14.5,11.6 15.4,11.6 15.7,12.2L19,17.5C19.5,18.1 19,19 18.2,19Z" style="fill:rgb(210,210,210);fill-rule:nonzero;"/>
</svg>
