<?xml version="1.0" encoding="UTF-8" standalone="no"?>
<!DOCTYPE svg PUBLIC "-//W3C//DTD SVG 1.1//EN" "http://www.w3.org/Graphics/SVG/1.1/DTD/svg11.dtd">
<svg width="100%" height="100%" viewBox="0 0 1000 1000" version="1.1" xmlns="http://www.w3.org/2000/svg" xmlns:xlink="http://www.w3.org/1999/xlink" xml:space="preserve" xmlns:serif="http://www.serif.com/" style="fill-rule:evenodd;clip-rule:evenodd;stroke-linejoin:round;stroke-miterlimit:1.41421;">
    <g>
        <g>
            <path d="M699.2,10L675.1,10L614.8,10L156.1,10C116.2,10 83.8,40.8 83.8,78.8L83.8,921.1C83.8,959 116.2,989.9 156.1,989.9L843.9,989.9C883.8,989.9 916.2,959.1 916.2,921.1L916.2,252.3L699.2,10ZM820.5,251L675.1,251L675.1,88.6L820.5,251ZM830,915.7L171.4,915.7C164.7,915.7 159.5,911.2 159.5,907.2L159.5,91.8C159.5,87.8 164.6,83.3 171.4,83.3L619,83.3L619,261C619,293.7 645.6,320.2 678.2,320.2L841.8,320.2L841.8,907.2C841.8,911.3 836.7,915.7 830,915.7Z" style="fill:rgb(210,210,210);fill-rule:nonzero;"/>
            <path d="M555.8,308.2C555.8,329 539,345.9 518.1,345.9L314.5,345.9C293.7,345.9 276.8,329.1 276.8,308.2C276.8,287.4 293.6,270.5 314.5,270.5L518.1,270.5C538.8,270.6 555.8,287.4 555.8,308.2Z" style="fill:rgb(210,210,210);fill-rule:nonzero;"/>
            <path d="M732.9,495.4C732.9,516.2 716.1,533.1 695.2,533.1L317.5,533.1C296.7,533.1 279.8,516.3 279.8,495.4C279.8,474.6 296.6,457.7 317.5,457.7L695.3,457.7C716,457.7 732.9,474.5 732.9,495.4Z" style="fill:rgb(210,210,210);fill-rule:nonzero;"/>
            <path d="M732.9,682.5C732.9,703.3 716.1,720.2 695.2,720.2L317.5,720.2C296.7,720.2 279.8,703.4 279.8,682.5C279.8,661.7 296.6,644.8 317.5,644.8L695.3,644.8C716,644.8 732.9,661.8 732.9,682.5Z" style="fill:rgb(210,210,210);fill-rule:nonzero;"/>
        </g>
    </g>
</svg>
