<?xml version="1.0" encoding="UTF-8" standalone="no"?>
<!DOCTYPE svg PUBLIC "-//W3C//DTD SVG 1.1//EN" "http://www.w3.org/Graphics/SVG/1.1/DTD/svg11.dtd">
<svg width="100%" height="100%" viewBox="0 0 24 24" version="1.1" xmlns="http://www.w3.org/2000/svg" xmlns:xlink="http://www.w3.org/1999/xlink" xml:space="preserve" xmlns:serif="http://www.serif.com/" style="fill-rule:evenodd;clip-rule:evenodd;stroke-linejoin:round;stroke-miterlimit:1.41421;">
    <path d="M23.6,6.2C23.3,6 23,6 22.7,6.1L17,8.5L17,5C17,4.4 16.6,4 16,4L1,4C0.4,4 0,4.4 0,5L0,19C0,19.6 0.4,20 1,20L16,20C16.6,20 17,19.6 17,19L17,15.5L22.6,17.9C22.7,18 22.9,18 23,18C23.2,18 23.4,17.9 23.6,17.8C23.9,17.6 24,17.3 24,17L24,7C24,6.7 23.8,6.4 23.6,6.2Z" style="fill:rgb(210,210,210);fill-rule:nonzero;"/>
</svg>
